{"title":"Dark Shadows 2012 BRRip 1080p BRRip  x264 6Ch-AC3 - ViZNU [P2PDL","uid":7601203,"size":1910372719,"categoryP":"video","categoryS":"hd___movies","magnet":"?xt=urn:btih:7f8fe867cc7f15fe31348c999f138538ebd99264&amp;dn=Dark+Shadows+2012+BRRip+1080p+BRRip++x264+6Ch-AC3+-+ViZNU+%5BP2PDL&amp;tr=udp%3A%2F%2Ftracker.openbittorrent.com%3A80&amp;tr=udp%3A%2F%2Fopen.demonii.com%3A1337&amp;tr=udp%3A%2F%2Ftracker.coppersurfer.tk%3A6969&amp;tr=udp%3A%2F%2Fexodus.desync.com%3A6969","seeders":0,"leechers":0,"uploader":"ValidusVyto","files":-1,"time":1346828232,"description":"_________________________  Visit us at _________________________\n  &lt;a href=&quot;\nhttp://p2pdl.com&quot; rel=&quot;nofollow&quot; target=&quot;_NEW&quot;&gt;\nhttp://p2pdl.com&lt;/a&gt;  ____________________________ &lt;a href=&quot; http://tinym.eu&quot; rel=&quot;nofollow&quot; target=&quot;_NEW&quot;&gt; http://tinym.eu&lt;/a&gt;\n\n &lt;a href=&quot;\nhttp://i.imgur.com/pi9DP.jpg&quot; rel=&quot;nofollow&quot; target=&quot;_NEW&quot;&gt;\nhttp://i.imgur.com/pi9DP.jpg&lt;/a&gt;\n\n\nRelease Title: Dark Shadows (2012) \n\n\t\t\t\t\t\nGenre: Comedy | Fantasy \nIMDb Rating: 6.5/10 &lt;a href=&quot;\nhttp://www.imdb.com/title/tt1077368/&quot; rel=&quot;nofollow&quot; target=&quot;_NEW&quot;&gt;\nhttp://www.imdb.com/title/tt1077368/&lt;/a&gt;\n\n\nPlot: An imprisoned vampire, Barnabas Collins, is set free and returns to his ancestral home, where his dysfunctional descendants are in need of his protection. \n\n\nDirector:  Tim Burton\n\n\nStars: Johnny Depp, Michelle Pfeiffer and Eva Green .\n\n\nRated: PG-13 for comic horror violence, sexual content, some drug use, language and smoking.\n\n\nGeneral\nFormat                         : Matroska\nFormat version                 : Version 2\nFile size                      : 1.75 GiB\nDuration                       : 1h 53mn\nOverall bit rate               : 2 211 Kbps\nMovie name                     : Dark Shadows 2012 BRRip 1080p BRRip  x264 6Ch-AC3 - ViZNU [P2PDL]\n\n\nVideo\nID                             : 1\nFormat                         : AVC\nFormat/Info                    : Advanced Video Codec\nFormat profile                 : &lt;a class=&quot;__cf_email__&quot; href=&quot;/cdn-cgi/l/email-protection&quot; data-cfemail=&quot;99d1f0fef1d9d5adb7a8&quot;&gt;[email&amp;#160;protected]&lt;/a&gt;&lt;script data-cfhash='f9e31' type=&quot;text/javascript&quot;&gt;\n/* &lt;![CDATA[ */!function(){try{var t=&quot;currentScript&quot;in document?document.currentScript:function(){for(var t=document.getElementsByTagName(&quot;script&quot;),e=t.length;e--;)if(t[e].getAttribute(&quot;data-cfhash&quot;))return t[e]}();if(t&amp;&amp;t.previousSibling){var e,r,n,i,c=t.previousSibling,a=c.getAttribute(&quot;data-cfemail&quot;);if(a){for(e=&quot;&quot;,r=parseInt(a.substr(0,2),16),n=2;a.length-n;n+=2)i=parseInt(a.substr(n,2),16)^r,e+=String.fromCharCode(i);e=document.createTextNode(e),c.parentNode.replaceChild(e,c)}t.parentNode.removeChild(t);}}catch(u){}}()/* ]]&gt; */&lt;/script&gt;\nDuration                       : 1h 53mn\nBit rate                       : 1 750 Kbps\nWidth                          : 1 920 pixels\nHeight                         : 1 080 pixels\nDisplay aspect ratio           : 16:9\nFrame rate                     : 23.976 fps\nColor space                    : YUV\nChroma subsampling             : 4:2:0\nStream size                    : 1.36 GiB (78%)\nWriting library                : x264\nDefault                        : Yes\n\n\nAudio\nID                             : 2\nFormat                         : AC-3\nFormat/Info                    : Audio Coding 3\nCodec ID                       : A_AC3\nDuration                       : 1h 53mn\nBit rate mode                  : Constant\nBit rate                       : 448 Kbps\nChannel(s)                     : 6 channels\nChannel positions              : Front: L C R, Side: L R, LFE\nSampling rate                  : 48.0 KHz\nStream size                    : 362 MiB (20%)\nLanguage                       : English\nDefault                        : Yes\n\n\nSubtitle:  [English (Subtitle 1)]\n\n\nScreens:\n\n &lt;a href=&quot;\nhttp://i.imgbox.com/aby42HyS.png&quot; rel=&quot;nofollow&quot; target=&quot;_NEW&quot;&gt;\nhttp://i.imgbox.com/aby42HyS.png&lt;/a&gt; &lt;a href=&quot;\nhttp://i.imgbox.com/adhZJl9n.png&quot; rel=&quot;nofollow&quot; target=&quot;_NEW&quot;&gt;\nhttp://i.imgbox.com/adhZJl9n.png&lt;/a&gt; &lt;a href=&quot;\nhttp://i.imgbox.com/abjPUFGd.png&quot; rel=&quot;nofollow&quot; target=&quot;_NEW&quot;&gt;\nhttp://i.imgbox.com/abjPUFGd.png&lt;/a&gt; &lt;a href=&quot;\nhttp://i.imgbox.com/adz023C2.png&quot; rel=&quot;nofollow&quot; target=&quot;_NEW&quot;&gt;\nhttp://i.imgbox.com/adz023C2.png&lt;/a&gt; &lt;a href=&quot;\nhttp://i.imgbox.com/abqPClvs.png&quot; rel=&quot;nofollow&quot; target=&quot;_NEW&quot;&gt;\nhttp://i.imgbox.com/abqPClvs.png&lt;/a&gt;\n\n\nSample:\n\n\n\n\n------------------------------------------------------------------------\n\n\nRecommend you to use VLC player. Check sample to be sure. Enjoy!\n\n\nGreets to: srkfan, Vitamin_X, MgB, Feel_Free, staff members at ExtraTorrent, TPB,KAT, 1337x, PublicHD, Ahashare,\nSilverTorrent, TorrentMafia, P2PDL, and all others\n\n\nEncoder Notes: Looking For Early Access To Anything You Can Provide DVDScr, R5, DVDRips, BluRay, Direct Audio, Early Music\nReleases, Seedboxes, Links, Dedicated Servers anything u can provide, Advance / Promo CDs/DVDs. If You Got anything to\noffer contact me at &quot;&lt;a class=&quot;__cf_email__&quot; href=&quot;/cdn-cgi/l/email-protection&quot; data-cfemail=&quot;5f3c30312b3e3c2b1f2b36312632713a2a&quot;&gt;[email&amp;#160;protected]&lt;/a&gt;&lt;script data-cfhash='f9e31' type=&quot;text/javascript&quot;&gt;\n/* &lt;![CDATA[ */!function(){try{var t=&quot;currentScript&quot;in document?document.currentScript:function(){for(var t=document.getElementsByTagName(&quot;script&quot;),e=t.length;e--;)if(t[e].getAttribute(&quot;data-cfhash&quot;))return t[e]}();if(t&amp;&amp;t.previousSibling){var e,r,n,i,c=t.previousSibling,a=c.getAttribute(&quot;data-cfemail&quot;);if(a){for(e=&quot;&quot;,r=parseInt(a.substr(0,2),16),n=2;a.length-n;n+=2)i=parseInt(a.substr(n,2),16)^r,e+=String.fromCharCode(i);e=document.createTextNode(e),c.parentNode.replaceChild(e,c)}t.parentNode.removeChild(t);}}catch(u){}}()/* ]]&gt; */&lt;/script&gt;&quot;\n\n\nOur Facebook Group:       &lt;a href=&quot;\nhttp://vt802.us/mbPOi&quot; rel=&quot;nofollow&quot; target=&quot;_NEW&quot;&gt;\nhttp://vt802.us/mbPOi&lt;/a&gt;\n\n\nOur Facebook Fan Page:       &lt;a href=&quot;\nhttp://vt802.us/0OS2J&quot; rel=&quot;nofollow&quot; target=&quot;_NEW&quot;&gt;\nhttp://vt802.us/0OS2J&lt;/a&gt;\n","torrent":{"xt":"urn:btih:7f8fe867cc7f15fe31348c999f138538ebd99264","amp;dn":"Dark+Shadows+2012+BRRip+1080p+BRRip++x264+6Ch-AC3+-+ViZNU+%5BP2PDL","amp;tr":["udp%3A%2F%2Ftracker.openbittorrent.com%3A80","udp%3A%2F%2Fopen.demonii.com%3A1337","udp%3A%2F%2Ftracker.coppersurfer.tk%3A6969","udp%3A%2F%2Fexodus.desync.com%3A6969"],"infoHash":"7f8fe867cc7f15fe31348c999f138538ebd99264","infoHashBuffer":{"type":"Buffer","data":[127,143,232,103,204,127,21,254,49,52,140,153,159,19,133,56,235,217,146,100]},"announce":[],"urlList":[]}}